<svg width="43" height="42" viewBox="0 0 43 42" fill="none" xmlns="http://www.w3.org/2000/svg">
<circle cx="21.0527" cy="21" r="21" fill="white"/>
<path fill-rule="evenodd" clip-rule="evenodd" d="M27.5527 21.1992C27.5527 17.6103 24.5307 14.7002 20.8037 14.7002C17.0767 14.7002 14.0547 17.6103 14.0547 21.1992C14.0547 24.4429 16.5223 27.1316 19.7491 27.6196V23.0784H18.0351V21.1992H19.7491V19.7674C19.7491 18.1389 20.757 17.2386 22.2984 17.2386C23.0369 17.2386 23.8094 17.3657 23.8094 17.3657V18.9652H22.9579C22.12 18.9652 21.8579 19.466 21.8579 19.9807V21.1992H23.7295L23.4307 23.0784H21.8582V27.6202C25.0851 27.1325 27.5527 24.4438 27.5527 21.1992Z" fill="#1E1F22"/>
</svg>
