<svg width="24" height="24" viewBox="0 0 24 24" fill="none" xmlns="http://www.w3.org/2000/svg">
<path fill-rule="evenodd" clip-rule="evenodd" d="M20 4.99952H18.83C18.6234 4.41399 18.2403 3.90695 17.7334 3.54831C17.2265 3.18967 16.6209 2.99707 16 2.99707C15.3791 2.99707 14.7735 3.18967 14.2666 3.54831C13.7597 3.90695 13.3766 4.41399 13.17 4.99952H4C3.73478 4.99952 3.48043 5.10488 3.29289 5.29241C3.10536 5.47995 3 5.7343 3 5.99952C3 6.26474 3.10536 6.51909 3.29289 6.70663C3.48043 6.89416 3.73478 6.99952 4 6.99952H13.17C13.3766 7.58505 13.7597 8.09209 14.2666 8.45073C14.7735 8.80938 15.3791 9.00197 16 9.00197C16.6209 9.00197 17.2265 8.80938 17.7334 8.45073C18.2403 8.09209 18.6234 7.58505 18.83 6.99952H20C20.2652 6.99952 20.5196 6.89416 20.7071 6.70663C20.8946 6.51909 21 6.26474 21 5.99952C21 5.7343 20.8946 5.47995 20.7071 5.29241C20.5196 5.10488 20.2652 4.99952 20 4.99952ZM16 6.99952C16.2652 6.99952 16.5196 6.89416 16.7071 6.70663C16.8946 6.51909 17 6.26474 17 5.99952C17 5.7343 16.8946 5.47995 16.7071 5.29241C16.5196 5.10488 16.2652 4.99952 16 4.99952C15.7348 4.99952 15.4804 5.10488 15.2929 5.29241C15.1054 5.47995 15 5.7343 15 5.99952C15 6.26474 15.1054 6.51909 15.2929 6.70663C15.4804 6.89416 15.7348 6.99952 16 6.99952ZM3 11.9995C3 11.7343 3.10536 11.4799 3.29289 11.2924C3.48043 11.1049 3.73478 10.9995 4 10.9995H5.17C5.3766 10.414 5.75974 9.90695 6.2666 9.54831C6.77346 9.18967 7.37909 8.99707 8 8.99707C8.62091 8.99707 9.22654 9.18967 9.7334 9.54831C10.2403 9.90695 10.6234 10.414 10.83 10.9995H20C20.2652 10.9995 20.5196 11.1049 20.7071 11.2924C20.8946 11.4799 21 11.7343 21 11.9995C21 12.2647 20.8946 12.5191 20.7071 12.7066C20.5196 12.8942 20.2652 12.9995 20 12.9995H10.83C10.6234 13.5851 10.2403 14.0921 9.7334 14.4507C9.22654 14.8094 8.62091 15.002 8 15.002C7.37909 15.002 6.77346 14.8094 6.2666 14.4507C5.75974 14.0921 5.3766 13.5851 5.17 12.9995H4C3.73478 12.9995 3.48043 12.8942 3.29289 12.7066C3.10536 12.5191 3 12.2647 3 11.9995ZM8 12.9995C8.26522 12.9995 8.51957 12.8942 8.70711 12.7066C8.89464 12.5191 9 12.2647 9 11.9995C9 11.7343 8.89464 11.4799 8.70711 11.2924C8.51957 11.1049 8.26522 10.9995 8 10.9995C7.73478 10.9995 7.48043 11.1049 7.29289 11.2924C7.10536 11.4799 7 11.7343 7 11.9995C7 12.2647 7.10536 12.5191 7.29289 12.7066C7.48043 12.8942 7.73478 12.9995 8 12.9995ZM4 16.9995C3.73478 16.9995 3.48043 17.1049 3.29289 17.2924C3.10536 17.4799 3 17.7343 3 17.9995C3 18.2647 3.10536 18.5191 3.29289 18.7066C3.48043 18.8942 3.73478 18.9995 4 18.9995H13.17C13.3766 19.5851 13.7597 20.0921 14.2666 20.4507C14.7735 20.8094 15.3791 21.002 16 21.002C16.6209 21.002 17.2265 20.8094 17.7334 20.4507C18.2403 20.0921 18.6234 19.5851 18.83 18.9995H20C20.2652 18.9995 20.5196 18.8942 20.7071 18.7066C20.8946 18.5191 21 18.2647 21 17.9995C21 17.7343 20.8946 17.4799 20.7071 17.2924C20.5196 17.1049 20.2652 16.9995 20 16.9995H18.83C18.6234 16.414 18.2403 15.907 17.7334 15.5483C17.2265 15.1897 16.6209 14.9971 16 14.9971C15.3791 14.9971 14.7735 15.1897 14.2666 15.5483C13.7597 15.907 13.3766 16.414 13.17 16.9995H4ZM17 17.9995C17 18.2647 16.8946 18.5191 16.7071 18.7066C16.5196 18.8942 16.2652 18.9995 16 18.9995C15.7348 18.9995 15.4804 18.8942 15.2929 18.7066C15.1054 18.5191 15 18.2647 15 17.9995C15 17.7343 15.1054 17.4799 15.2929 17.2924C15.4804 17.1049 15.7348 16.9995 16 16.9995C16.2652 16.9995 16.5196 17.1049 16.7071 17.2924C16.8946 17.4799 17 17.7343 17 17.9995Z" fill="#1E1F22"/>
</svg>
