<svg width="42" height="42" viewBox="0 0 42 42" fill="none" xmlns="http://www.w3.org/2000/svg">
<circle cx="21" cy="21" r="21" fill="white"/>
<path d="M23.561 15.7833C24.3061 15.7854 25.0202 16.0714 25.5471 16.5788C26.074 17.0862 26.371 17.7738 26.3732 18.4914V23.9071C26.371 24.6246 26.074 25.3122 25.5471 25.8196C25.0202 26.327 24.3061 26.613 23.561 26.6152H17.937C17.1918 26.613 16.4778 26.327 15.9509 25.8196C15.424 25.3122 15.127 24.6246 15.1247 23.9071V18.4914C15.127 17.7738 15.424 17.0862 15.9509 16.5788C16.4778 16.0714 17.1918 15.7854 17.937 15.7833H23.561ZM23.561 14.7002H17.937C15.7716 14.7002 14 16.4062 14 18.4914V23.9071C14 25.9923 15.7716 27.6982 17.937 27.6982H23.561C25.7264 27.6982 27.498 25.9923 27.498 23.9071V18.4914C27.498 16.4062 25.7264 14.7002 23.561 14.7002Z" fill="#1E1F22"/>
<path d="M24.4041 18.4919C24.2373 18.4919 24.0742 18.4443 23.9354 18.355C23.7967 18.2658 23.6886 18.1389 23.6247 17.9904C23.5609 17.842 23.5442 17.6787 23.5767 17.5211C23.6093 17.3635 23.6896 17.2187 23.8076 17.1051C23.9256 16.9915 24.0759 16.9141 24.2395 16.8828C24.4032 16.8515 24.5728 16.8675 24.727 16.929C24.8811 16.9905 25.0129 17.0946 25.1056 17.2282C25.1983 17.3618 25.2477 17.5189 25.2477 17.6796C25.248 17.7863 25.2263 17.8921 25.184 17.9907C25.1417 18.0894 25.0796 18.179 25.0012 18.2545C24.9228 18.33 24.8297 18.3898 24.7272 18.4306C24.6248 18.4713 24.515 18.4922 24.4041 18.4919ZM20.7485 19.0333C21.1935 19.0333 21.6284 19.1604 21.9984 19.3984C22.3684 19.6365 22.6567 19.9749 22.827 20.3707C22.9973 20.7666 23.0419 21.2022 22.9551 21.6224C22.8682 22.0427 22.654 22.4287 22.3393 22.7317C22.0247 23.0347 21.6238 23.241 21.1874 23.3246C20.751 23.4082 20.2987 23.3653 19.8876 23.2013C19.4765 23.0373 19.1251 22.7597 18.8779 22.4034C18.6307 22.0471 18.4988 21.6283 18.4988 21.1998C18.4994 20.6254 18.7366 20.0747 19.1584 19.6686C19.5802 19.2624 20.152 19.034 20.7485 19.0333ZM20.7485 17.9503C20.0811 17.9503 19.4287 18.1408 18.8738 18.4979C18.3188 18.855 17.8863 19.3625 17.6309 19.9562C17.3755 20.55 17.3087 21.2034 17.4389 21.8337C17.5691 22.4641 17.8905 23.0431 18.3624 23.4975C18.8343 23.952 19.4356 24.2615 20.0902 24.3869C20.7448 24.5122 21.4233 24.4479 22.0399 24.2019C22.6565 23.956 23.1835 23.5395 23.5543 23.0051C23.9251 22.4707 24.123 21.8425 24.123 21.1998C24.123 20.338 23.7675 19.5114 23.1346 18.902C22.5018 18.2926 21.6435 17.9503 20.7485 17.9503Z" fill="#1E1F22"/>
</svg>
