<svg width="159" height="32" viewBox="0 0 159 32" fill="none" xmlns="http://www.w3.org/2000/svg">
<g clip-path="url(#clip0_27_347)">
<mask id="mask0_27_347" style="mask-type:luminance" maskUnits="userSpaceOnUse" x="0" y="0" width="159" height="32">
<path d="M159 0H0V32H159V0Z" fill="white"/>
</mask>
<g mask="url(#mask0_27_347)">
<path d="M44.7247 16.7109C44.6028 16.7109 44.5283 16.6501 44.5012 16.5285L41.2303 2.74927L41.21 2.66821C41.21 2.57365 41.2706 2.52637 41.3925 2.52637H42.4898C42.6117 2.52637 42.6862 2.58716 42.7133 2.70874L45.1921 13.5903C45.2056 13.6308 45.2192 13.6511 45.2327 13.6511C45.2598 13.6511 45.2801 13.6308 45.2937 13.5903L47.5489 2.70874C47.576 2.58716 47.6505 2.52637 47.7725 2.52637H48.7881C48.9236 2.52637 48.9981 2.58716 49.0117 2.70874L51.3482 13.5903C51.3617 13.6308 51.3753 13.6511 51.3888 13.6511C51.4024 13.6511 51.4159 13.6308 51.4295 13.5903L53.8473 2.70874C53.8743 2.58716 53.9489 2.52637 54.0708 2.52637H55.1274C55.2626 2.52637 55.3168 2.60067 55.2897 2.74927L52.1204 16.5285C52.0933 16.6501 52.0188 16.7109 51.8968 16.7109H50.8605C50.7386 16.7109 50.664 16.6501 50.6369 16.5285L48.3208 5.48483C48.3072 5.44434 48.2937 5.42407 48.2801 5.42407C48.2666 5.42407 48.253 5.44434 48.2395 5.48483L45.9436 16.5285C45.93 16.6501 45.8559 16.7109 45.7204 16.7109H44.7247ZM61.0668 16.873C60.2404 16.873 59.5089 16.7041 58.8725 16.3664C58.2493 16.0151 57.7616 15.5288 57.4094 14.9074C57.0707 14.286 56.9014 13.57 56.9014 12.7595V6.49802C56.9014 5.6875 57.0707 4.97152 57.4094 4.35008C57.7616 3.71516 58.2493 3.22884 58.8725 2.89111C59.5089 2.53988 60.2404 2.36426 61.0668 2.36426C61.8928 2.36426 62.6176 2.53988 63.2407 2.89111C63.8771 3.22884 64.3716 3.71516 64.7238 4.35008C65.076 4.97152 65.2521 5.6875 65.2521 6.49802V12.7595C65.2521 13.57 65.076 14.286 64.7238 14.9074C64.3716 15.5288 63.8771 16.0151 63.2407 16.3664C62.6176 16.7041 61.8928 16.873 61.0668 16.873ZM61.0668 15.6166C61.8928 15.6166 62.5566 15.36 63.0578 14.8466C63.5591 14.3333 63.8094 13.6578 63.8094 12.8203V6.45749C63.8094 5.60643 63.5591 4.92423 63.0578 4.41088C62.5566 3.88402 61.8928 3.62059 61.0668 3.62059C60.254 3.62059 59.5969 3.88402 59.096 4.41088C58.5948 4.92423 58.3442 5.60643 58.3442 6.45749V12.8203C58.3442 13.6578 58.5948 14.3333 59.096 14.8466C59.5969 15.36 60.254 15.6166 61.0668 15.6166ZM75.2089 16.7109C75.1005 16.7109 75.026 16.6568 74.9853 16.5488L72.4659 10.2873C72.4524 10.2468 72.4253 10.2265 72.3847 10.2265H69.764C69.7098 10.2265 69.6827 10.2535 69.6827 10.3076V16.5082C69.6827 16.6433 69.615 16.7109 69.4795 16.7109H68.4432C68.3077 16.7109 68.24 16.6433 68.24 16.5082V2.729C68.24 2.59391 68.3077 2.52637 68.4432 2.52637H72.7504C73.4549 2.52637 74.078 2.68847 74.6196 3.01269C75.175 3.33691 75.6017 3.79623 75.8998 4.39061C76.2113 4.98503 76.3671 5.66723 76.3671 6.43722C76.3671 7.35584 76.1436 8.13938 75.6966 8.7878C75.2495 9.43623 74.6399 9.86851 73.8681 10.0847C73.8139 10.1117 73.8003 10.1455 73.8274 10.186L76.4484 16.4677L76.4687 16.5488C76.4687 16.6568 76.4078 16.7109 76.2859 16.7109H75.2089ZM69.764 3.78272C69.7098 3.78272 69.6827 3.80974 69.6827 3.86375V8.99043C69.6827 9.04448 69.7098 9.0715 69.764 9.0715H72.5675C73.272 9.0715 73.841 8.82834 74.2745 8.34201C74.7076 7.85568 74.9244 7.22076 74.9244 6.43722C74.9244 5.64021 74.7076 4.99851 74.2745 4.51221C73.841 4.02588 73.272 3.78272 72.5675 3.78272H69.764ZM79.1774 16.7109C79.042 16.7109 78.9742 16.6433 78.9742 16.5082V2.729C78.9742 2.59391 79.042 2.52637 79.1774 2.52637H80.2134C80.3489 2.52637 80.4167 2.59391 80.4167 2.729V9.4565C80.4167 9.48352 80.4302 9.50379 80.4573 9.5173C80.4844 9.5173 80.5047 9.50379 80.5183 9.47676L85.679 2.64795C85.7332 2.5669 85.8212 2.52637 85.9431 2.52637H87.0807C87.162 2.52637 87.2162 2.55339 87.2433 2.60742C87.2704 2.64795 87.2569 2.70199 87.2027 2.76953L83.1393 8.32174C83.1257 8.36227 83.1257 8.40281 83.1393 8.44334L87.5684 16.4677C87.5955 16.5217 87.6091 16.5623 87.6091 16.5893C87.6091 16.6703 87.5481 16.7109 87.4262 16.7109H86.248C86.126 16.7109 86.0448 16.6636 86.0041 16.569L82.1435 9.5781C82.1165 9.51054 82.0826 9.51054 82.0419 9.5781L80.4573 11.5842C80.4302 11.6112 80.4167 11.645 80.4167 11.6855V16.5082C80.4167 16.6433 80.3489 16.7109 80.2134 16.7109H79.1774ZM93.0229 16.873C91.7499 16.873 90.7338 16.542 89.9752 15.8801C89.2305 15.2046 88.8579 14.3062 88.8579 13.185V12.6379C88.8579 12.5028 88.9256 12.4352 89.0611 12.4352H90.0565C90.1919 12.4352 90.2597 12.5028 90.2597 12.6379V13.104C90.2597 13.8604 90.5171 14.4684 91.0319 14.9277C91.5467 15.387 92.2304 15.6166 93.0839 15.6166C93.8832 15.6166 94.5127 15.4005 94.9733 14.9682C95.4339 14.5359 95.6643 13.9685 95.6643 13.2661C95.6643 12.8068 95.5559 12.4082 95.3391 12.0705C95.1224 11.7328 94.804 11.4221 94.3841 11.1384C93.9644 10.8547 93.3616 10.4967 92.5759 10.0644C91.7363 9.61863 91.0725 9.22684 90.5848 8.88914C90.1107 8.55139 89.7246 8.13938 89.4269 7.65305C89.1289 7.16672 88.9798 6.57234 88.9798 5.86987C88.9798 4.77561 89.3321 3.91779 90.0361 3.29638C90.7406 2.67497 91.6821 2.36426 92.8604 2.36426C94.1202 2.36426 95.1224 2.70874 95.8675 3.3977C96.6122 4.08665 96.9847 4.99851 96.9847 6.1333V6.59936C96.9847 6.73443 96.917 6.80199 96.7815 6.80199H95.7659C95.6304 6.80199 95.5626 6.73443 95.5626 6.59936V6.15353C95.5626 5.39705 95.3188 4.78912 94.8311 4.32981C94.3434 3.85699 93.6732 3.62059 92.8197 3.62059C92.0611 3.62059 91.4654 3.8165 91.0319 4.20825C90.6119 4.6 90.4019 5.15388 90.4019 5.86987C90.4019 6.32917 90.5035 6.71417 90.7067 7.02489C90.9099 7.33557 91.2012 7.61927 91.5805 7.87595C91.973 8.13262 92.5691 8.47708 93.3684 8.9094C94.2892 9.42272 94.9937 9.86179 95.4814 10.2265C95.9826 10.5777 96.3755 10.9898 96.6596 11.4626C96.9576 11.9219 97.1067 12.4893 97.1067 13.1647C97.1067 14.2995 96.7409 15.2046 96.0097 15.8801C95.2782 16.542 94.2825 16.873 93.0229 16.873ZM106.786 2.52637C106.922 2.52637 106.99 2.59391 106.99 2.729V3.58009C106.99 3.71516 106.922 3.78272 106.786 3.78272H103.475C103.421 3.78272 103.394 3.80974 103.394 3.86375V16.5082C103.394 16.6433 103.326 16.7109 103.19 16.7109H102.154C102.019 16.7109 101.951 16.6433 101.951 16.5082V3.86375C101.951 3.80974 101.924 3.78272 101.87 3.78272H98.6799C98.5444 3.78272 98.4767 3.71516 98.4767 3.58009V2.729C98.4767 2.59391 98.5444 2.52637 98.6799 2.52637H106.786ZM117.293 3.58009C117.293 3.71516 117.225 3.78272 117.089 3.78272H110.994C110.94 3.78272 110.913 3.80974 110.913 3.86375V8.88914C110.913 8.94314 110.94 8.97017 110.994 8.97017H115.098C115.234 8.97017 115.301 9.03772 115.301 9.1728V10.0239C115.301 10.159 115.234 10.2265 115.098 10.2265H110.994C110.94 10.2265 110.913 10.2535 110.913 10.3076V15.3735C110.913 15.4275 110.94 15.4545 110.994 15.4545H117.089C117.225 15.4545 117.293 15.5221 117.293 15.6572V16.5082C117.293 16.6433 117.225 16.7109 117.089 16.7109H109.673C109.538 16.7109 109.47 16.6433 109.47 16.5082V2.729C109.47 2.59391 109.538 2.52637 109.673 2.52637H117.089C117.225 2.52637 117.293 2.59391 117.293 2.729V3.58009ZM120.169 16.7109C120.034 16.7109 119.966 16.6433 119.966 16.5082V2.729C119.966 2.59391 120.034 2.52637 120.169 2.52637H121.206C121.341 2.52637 121.409 2.59391 121.409 2.729V15.3735C121.409 15.4275 121.436 15.4545 121.49 15.4545H127.403C127.538 15.4545 127.606 15.5221 127.606 15.6572V16.5082C127.606 16.6433 127.538 16.7109 127.403 16.7109H120.169ZM129.971 16.7109C129.836 16.7109 129.768 16.6433 129.768 16.5082V2.729C129.768 2.59391 129.836 2.52637 129.971 2.52637H131.007C131.143 2.52637 131.21 2.59391 131.21 2.729V15.3735C131.21 15.4275 131.237 15.4545 131.292 15.4545H137.204C137.34 15.4545 137.407 15.5221 137.407 15.6572V16.5082C137.407 16.6433 137.34 16.7109 137.204 16.7109H129.971ZM147.33 16.7109C147.208 16.7109 147.134 16.6501 147.107 16.5285L146.436 13.9956C146.423 13.955 146.389 13.9348 146.335 13.9348H141.479C141.425 13.9348 141.391 13.955 141.377 13.9956L140.707 16.5285C140.68 16.6501 140.605 16.7109 140.483 16.7109H139.427C139.359 16.7109 139.305 16.6906 139.264 16.6501C139.237 16.6095 139.23 16.5555 139.244 16.488L143.043 2.70874C143.07 2.58716 143.145 2.52637 143.267 2.52637H144.567C144.689 2.52637 144.764 2.58716 144.791 2.70874L148.59 16.488L148.61 16.5488C148.61 16.6568 148.542 16.7109 148.407 16.7109H147.33ZM141.723 12.6784C141.709 12.6919 141.709 12.7122 141.723 12.7392C141.75 12.7527 141.777 12.7595 141.804 12.7595H146.009C146.037 12.7595 146.057 12.7527 146.07 12.7392C146.098 12.7122 146.104 12.6919 146.091 12.6784L143.937 4.53244C143.924 4.50546 143.91 4.49195 143.897 4.49195C143.883 4.49195 143.869 4.50546 143.856 4.53244L141.723 12.6784ZM157.729 16.7109C157.621 16.7109 157.546 16.6568 157.506 16.5488L154.986 10.2873C154.973 10.2468 154.946 10.2265 154.905 10.2265H152.284C152.23 10.2265 152.203 10.2535 152.203 10.3076V16.5082C152.203 16.6433 152.135 16.7109 151.999 16.7109H150.963C150.828 16.7109 150.76 16.6433 150.76 16.5082V2.729C150.76 2.59391 150.828 2.52637 150.963 2.52637H155.271C155.975 2.52637 156.598 2.68847 157.14 3.01269C157.695 3.33691 158.122 3.79623 158.42 4.39061C158.731 4.98503 158.887 5.66723 158.887 6.43722C158.887 7.35584 158.664 8.13938 158.216 8.7878C157.769 9.43623 157.16 9.86851 156.388 10.0847C156.334 10.1117 156.32 10.1455 156.347 10.186L158.968 16.4677L158.989 16.5488C158.989 16.6568 158.928 16.7109 158.806 16.7109H157.729ZM152.284 3.78272C152.23 3.78272 152.203 3.80974 152.203 3.86375V8.99043C152.203 9.04448 152.23 9.0715 152.284 9.0715H155.088C155.792 9.0715 156.361 8.82834 156.794 8.34201C157.228 7.85568 157.445 7.22076 157.445 6.43722C157.445 5.64021 157.228 4.99851 156.794 4.51221C156.361 4.02588 155.792 3.78272 155.088 3.78272H152.284Z" fill="#1E1F22"/>
<path d="M45.6851 30.3547C45.1351 30.3547 44.6955 30.2064 44.3664 29.91C44.0377 29.6072 43.873 29.2066 43.873 28.7083V28.4529C43.873 28.3898 43.9048 28.3582 43.9679 28.3582H44.0534C44.1165 28.3582 44.1483 28.3898 44.1483 28.4529V28.6989C44.1483 29.1215 44.2873 29.4621 44.5657 29.7207C44.8442 29.973 45.2203 30.0992 45.6948 30.0992C46.15 30.0992 46.5072 29.9793 46.7668 29.7397C47.0324 29.4936 47.165 29.1625 47.165 28.7462C47.165 28.4876 47.1083 28.2636 46.9942 28.0744C46.8805 27.8851 46.7129 27.7117 46.4916 27.554C46.2702 27.3963 45.9604 27.2071 45.5618 26.9863C45.1572 26.7655 44.847 26.5794 44.632 26.428C44.4235 26.2766 44.2559 26.0969 44.1294 25.8887C44.0092 25.6806 43.949 25.422 43.949 25.1129C43.949 24.6209 44.0976 24.2424 44.395 23.9775C44.6923 23.7126 45.0969 23.5801 45.6092 23.5801C46.1657 23.5801 46.6021 23.7315 46.9186 24.0342C47.2349 24.3307 47.3928 24.7313 47.3928 25.2359V25.4724C47.3928 25.5355 47.3611 25.567 47.298 25.567H47.2031C47.1397 25.567 47.1083 25.5355 47.1083 25.4724V25.2548C47.1083 24.8259 46.9721 24.4821 46.7001 24.2235C46.4345 23.9649 46.0677 23.8355 45.5999 23.8355C45.1761 23.8355 44.8409 23.9459 44.5942 24.1667C44.3475 24.3875 44.2242 24.7029 44.2242 25.1129C44.2242 25.3652 44.2748 25.5765 44.3761 25.7468C44.4834 25.9171 44.6352 26.0717 44.8313 26.2104C45.0274 26.3429 45.3279 26.5195 45.7326 26.7403C46.1564 26.9737 46.4851 27.1818 46.7194 27.3648C46.9596 27.5414 47.1397 27.7369 47.2602 27.9514C47.3864 28.1595 47.4498 28.4119 47.4498 28.7083C47.4498 29.2066 47.2915 29.6072 46.9753 29.91C46.6655 30.2064 46.2356 30.3547 45.6851 30.3547ZM53.8519 23.6558C53.915 23.6558 53.9467 23.6873 53.9467 23.7504V23.8261C53.9467 23.8892 53.915 23.9207 53.8519 23.9207H52.2487C52.2234 23.9207 52.2106 23.9333 52.2106 23.9586V30.1843C52.2106 30.2474 52.1792 30.279 52.1157 30.279H52.0209C51.9578 30.279 51.9261 30.2474 51.9261 30.1843V23.9586C51.9261 23.9333 51.9136 23.9207 51.8883 23.9207H50.3796C50.3165 23.9207 50.2847 23.8892 50.2847 23.8261V23.7504C50.2847 23.6873 50.3165 23.6558 50.3796 23.6558H53.8519ZM60.773 30.279C60.7224 30.279 60.6875 30.2537 60.6686 30.2033L59.331 27.1093C59.3246 27.0904 59.3121 27.0809 59.2928 27.0809H57.7467C57.7214 27.0809 57.7085 27.0935 57.7085 27.1187V30.1843C57.7085 30.2474 57.6772 30.279 57.6137 30.279H57.5189C57.4558 30.279 57.4241 30.2474 57.4241 30.1843V23.7504C57.4241 23.6873 57.4558 23.6558 57.5189 23.6558H59.331C59.7991 23.6558 60.1752 23.8135 60.46 24.1288C60.7509 24.4443 60.8964 24.8606 60.8964 25.3778C60.8964 25.8257 60.7823 26.201 60.5549 26.5037C60.327 26.8002 60.0237 26.9831 59.644 27.0525C59.6187 27.0651 59.6123 27.0809 59.6251 27.0998L60.9342 30.1654L60.9438 30.2033C60.9438 30.2537 60.9153 30.279 60.8582 30.279H60.773ZM57.7467 23.9207C57.7214 23.9207 57.7085 23.9333 57.7085 23.9586V26.7876C57.7085 26.8128 57.7214 26.8254 57.7467 26.8254H59.331C59.7167 26.8254 60.0265 26.693 60.2607 26.428C60.4946 26.1568 60.6115 25.8067 60.6115 25.3778C60.6115 24.9426 60.4946 24.5925 60.2607 24.3276C60.0265 24.0563 59.7167 23.9207 59.331 23.9207H57.7467ZM67.8097 30.279C67.7526 30.279 67.7181 30.2537 67.7052 30.2033L67.3355 28.8692C67.3291 28.8502 67.3131 28.8408 67.2878 28.8408H64.7359C64.7106 28.8408 64.6949 28.8502 64.6885 28.8692L64.3281 30.1938C64.3152 30.2506 64.2807 30.279 64.2236 30.279H64.1384C64.1067 30.279 64.0814 30.2695 64.0625 30.2506C64.0496 30.2317 64.0464 30.2064 64.0529 30.1749L65.8364 23.7315C65.8489 23.681 65.8838 23.6558 65.9409 23.6558H66.0735C66.1306 23.6558 66.1655 23.681 66.178 23.7315L67.9901 30.1749L67.9993 30.2033C67.9993 30.2537 67.968 30.279 67.9045 30.279H67.8097ZM64.7833 28.5475C64.7769 28.5538 64.7769 28.5632 64.7833 28.5758C64.7962 28.5822 64.8086 28.5853 64.8215 28.5853H67.2122C67.2247 28.5853 67.2343 28.5822 67.2403 28.5758C67.2532 28.5632 67.2564 28.5538 67.25 28.5475L66.0357 24.1478C66.0293 24.1352 66.0197 24.1288 66.0072 24.1288C66.0008 24.1288 65.9947 24.1352 65.9883 24.1478L64.7833 28.5475ZM71.3747 30.279C71.3112 30.279 71.2799 30.2474 71.2799 30.1843V23.7504C71.2799 23.6873 71.3112 23.6558 71.3747 23.6558H71.4695C71.5326 23.6558 71.5644 23.6873 71.5644 23.7504V30.1843C71.5644 30.2474 71.5326 30.279 71.4695 30.279H71.3747ZM77.109 30.3547C76.5779 30.3547 76.1476 30.2001 75.8189 29.891C75.4962 29.5756 75.3347 29.1625 75.3347 28.6515V25.2832C75.3347 24.7723 75.4962 24.3623 75.8189 24.0532C76.1476 23.7378 76.5779 23.5801 77.109 23.5801C77.6402 23.5801 78.067 23.7378 78.3896 24.0532C78.7122 24.3623 78.8734 24.7691 78.8734 25.2737V25.567C78.8734 25.6301 78.842 25.6616 78.7785 25.6616H78.6837C78.6206 25.6616 78.5889 25.6301 78.5889 25.567V25.2643C78.5889 24.8353 78.453 24.4915 78.181 24.233C77.909 23.9743 77.5518 23.845 77.109 23.845C76.6598 23.845 76.2994 23.9775 76.0274 24.2424C75.7554 24.501 75.6196 24.8448 75.6196 25.2737V28.661C75.6196 29.0899 75.7554 29.4369 76.0274 29.7018C76.2994 29.9604 76.6598 30.0897 77.109 30.0897C77.5518 30.0897 77.909 29.9604 78.181 29.7018C78.453 29.4432 78.5889 29.0994 78.5889 28.6705V27.3837C78.5889 27.3585 78.5764 27.3458 78.5511 27.3458H77.2702C77.2071 27.3458 77.1753 27.3143 77.1753 27.2512V27.1755C77.1753 27.1125 77.2071 27.0809 77.2702 27.0809H78.7785C78.842 27.0809 78.8734 27.1125 78.8734 27.1755V28.6515C78.8734 29.1688 78.7122 29.582 78.3896 29.891C78.067 30.2001 77.6402 30.3547 77.109 30.3547ZM85.8498 23.7504C85.8498 23.6873 85.8811 23.6558 85.9446 23.6558H86.0394C86.1025 23.6558 86.1342 23.6873 86.1342 23.7504V30.1843C86.1342 30.2474 86.1025 30.279 86.0394 30.279H85.9446C85.8811 30.279 85.8498 30.2474 85.8498 30.1843V27.1282C85.8498 27.103 85.8369 27.0904 85.8116 27.0904H82.9749C82.95 27.0904 82.9371 27.103 82.9371 27.1282V30.1843C82.9371 30.2474 82.9054 30.279 82.8423 30.279H82.7475C82.684 30.279 82.6526 30.2474 82.6526 30.1843V23.7504C82.6526 23.6873 82.684 23.6558 82.7475 23.6558H82.8423C82.9054 23.6558 82.9371 23.6873 82.9371 23.7504V26.7971C82.9371 26.8223 82.95 26.8349 82.9749 26.8349H85.8116C85.8369 26.8349 85.8498 26.8223 85.8498 26.7971V23.7504ZM93.1769 23.6558C93.24 23.6558 93.2718 23.6873 93.2718 23.7504V23.8261C93.2718 23.8892 93.24 23.9207 93.1769 23.9207H91.5738C91.5484 23.9207 91.5356 23.9333 91.5356 23.9586V30.1843C91.5356 30.2474 91.5039 30.279 91.4408 30.279H91.346C91.2829 30.279 91.2511 30.2474 91.2511 30.1843V23.9586C91.2511 23.9333 91.2383 23.9207 91.213 23.9207H89.7046C89.6415 23.9207 89.6098 23.8892 89.6098 23.8261V23.7504C89.6098 23.6873 89.6415 23.6558 89.7046 23.6558H93.1769ZM100.155 23.8261C100.155 23.8892 100.123 23.9207 100.06 23.9207H97.0717C97.0464 23.9207 97.0336 23.9333 97.0336 23.9586V26.7971C97.0336 26.8223 97.0464 26.8349 97.0717 26.8349H99.1494C99.2125 26.8349 99.2443 26.8664 99.2443 26.9295V26.9958C99.2443 27.0588 99.2125 27.0904 99.1494 27.0904H97.0717C97.0464 27.0904 97.0336 27.103 97.0336 27.1282V30.1843C97.0336 30.2474 97.0022 30.279 96.9388 30.279H96.8439C96.7808 30.279 96.7491 30.2474 96.7491 30.1843V23.7504C96.7491 23.6873 96.7808 23.6558 96.8439 23.6558H100.06C100.123 23.6558 100.155 23.6873 100.155 23.7504V23.8261ZM104.969 30.3547C104.621 30.3547 104.311 30.279 104.039 30.1276C103.767 29.9762 103.555 29.7649 103.404 29.4936C103.252 29.2224 103.176 28.9102 103.176 28.5569V25.3873C103.176 25.034 103.252 24.7218 103.404 24.4506C103.555 24.173 103.767 23.9586 104.039 23.8072C104.311 23.6558 104.621 23.5801 104.969 23.5801C105.323 23.5801 105.636 23.6558 105.908 23.8072C106.186 23.9586 106.401 24.173 106.553 24.4506C106.705 24.7218 106.781 25.034 106.781 25.3873V28.5569C106.781 28.9102 106.705 29.2224 106.553 29.4936C106.401 29.7649 106.186 29.9762 105.908 30.1276C105.636 30.279 105.323 30.3547 104.969 30.3547ZM104.969 30.0897C105.424 30.0897 105.791 29.951 106.069 29.6734C106.354 29.3896 106.496 29.0205 106.496 28.5664V25.3778C106.496 24.9173 106.354 24.5483 106.069 24.2708C105.791 23.9869 105.424 23.845 104.969 23.845C104.52 23.845 104.156 23.9869 103.878 24.2708C103.6 24.5483 103.461 24.9173 103.461 25.3778V28.5664C103.461 29.0205 103.6 29.3896 103.878 29.6734C104.156 29.951 104.52 30.0897 104.969 30.0897ZM113.907 30.279C113.857 30.279 113.822 30.2537 113.803 30.2033L112.465 27.1093C112.459 27.0904 112.446 27.0809 112.427 27.0809H110.881C110.856 27.0809 110.843 27.0935 110.843 27.1187V30.1843C110.843 30.2474 110.811 30.279 110.748 30.279H110.653C110.59 30.279 110.559 30.2474 110.559 30.1843V23.7504C110.559 23.6873 110.59 23.6558 110.653 23.6558H112.465C112.933 23.6558 113.31 23.8135 113.594 24.1288C113.885 24.4443 114.031 24.8606 114.031 25.3778C114.031 25.8257 113.917 26.201 113.689 26.5037C113.462 26.8002 113.158 26.9831 112.779 27.0525C112.753 27.0651 112.747 27.0809 112.759 27.0998L114.069 30.1654L114.078 30.2033C114.078 30.2537 114.049 30.279 113.993 30.279H113.907ZM110.881 23.9207C110.856 23.9207 110.843 23.9333 110.843 23.9586V26.7876C110.843 26.8128 110.856 26.8254 110.881 26.8254H112.465C112.851 26.8254 113.161 26.693 113.395 26.428C113.629 26.1568 113.746 25.8067 113.746 25.3778C113.746 24.9426 113.629 24.5925 113.395 24.3276C113.161 24.0563 112.851 23.9207 112.465 23.9207H110.881ZM118.617 30.279C118.56 30.279 118.525 30.2506 118.513 30.1938L116.957 23.7598L116.947 23.722C116.947 23.6779 116.976 23.6558 117.033 23.6558H117.137C117.194 23.6558 117.229 23.6841 117.242 23.7409L118.645 29.6356C118.652 29.6545 118.658 29.664 118.665 29.664C118.677 29.664 118.687 29.6545 118.693 29.6356L119.955 23.7409C119.967 23.6841 120.002 23.6558 120.059 23.6558H120.173C120.236 23.6558 120.271 23.6841 120.278 23.7409L121.568 29.6356C121.574 29.6545 121.58 29.664 121.587 29.664C121.599 29.664 121.609 29.6545 121.615 29.6356L122.991 23.7409C123.003 23.6841 123.038 23.6558 123.095 23.6558H123.199C123.231 23.6558 123.253 23.6652 123.266 23.6841C123.285 23.7031 123.288 23.7283 123.275 23.7598L121.738 30.1938C121.726 30.2506 121.691 30.279 121.634 30.279H121.52C121.463 30.279 121.428 30.2506 121.416 30.1938L120.135 24.2802C120.129 24.2613 120.122 24.2519 120.116 24.2519C120.11 24.2519 120.104 24.2613 120.097 24.2802L118.826 30.1938C118.819 30.2506 118.785 30.279 118.721 30.279H118.617ZM129.09 30.279C129.033 30.279 128.999 30.2537 128.986 30.2033L128.616 28.8692C128.609 28.8502 128.594 28.8408 128.568 28.8408H126.017C125.991 28.8408 125.975 28.8502 125.969 28.8692L125.609 30.1938C125.596 30.2506 125.561 30.279 125.504 30.279H125.419C125.387 30.279 125.362 30.2695 125.343 30.2506C125.33 30.2317 125.327 30.2064 125.333 30.1749L127.117 23.7315C127.13 23.681 127.164 23.6558 127.221 23.6558H127.354C127.411 23.6558 127.446 23.681 127.459 23.7315L129.27 30.1749L129.28 30.2033C129.28 30.2537 129.248 30.279 129.185 30.279H129.09ZM126.064 28.5475C126.058 28.5538 126.058 28.5632 126.064 28.5758C126.076 28.5822 126.089 28.5853 126.102 28.5853H128.492C128.505 28.5853 128.515 28.5822 128.521 28.5758C128.534 28.5632 128.537 28.5538 128.531 28.5475L127.316 24.1478C127.31 24.1352 127.3 24.1288 127.288 24.1288C127.281 24.1288 127.275 24.1352 127.269 24.1478L126.064 28.5475ZM135.909 30.279C135.858 30.279 135.824 30.2537 135.805 30.2033L134.467 27.1093C134.461 27.0904 134.448 27.0809 134.429 27.0809H132.883C132.857 27.0809 132.845 27.0935 132.845 27.1187V30.1843C132.845 30.2474 132.813 30.279 132.75 30.279H132.655C132.592 30.279 132.56 30.2474 132.56 30.1843V23.7504C132.56 23.6873 132.592 23.6558 132.655 23.6558H134.467C134.935 23.6558 135.312 23.8135 135.596 24.1288C135.887 24.4443 136.032 24.8606 136.032 25.3778C136.032 25.8257 135.919 26.201 135.691 26.5037C135.463 26.8002 135.16 26.9831 134.78 27.0525C134.755 27.0651 134.749 27.0809 134.761 27.0998L136.07 30.1654L136.08 30.2033C136.08 30.2537 136.051 30.279 135.995 30.279H135.909ZM132.883 23.9207C132.857 23.9207 132.845 23.9333 132.845 23.9586V26.7876C132.845 26.8128 132.857 26.8254 132.883 26.8254H134.467C134.853 26.8254 135.163 26.693 135.397 26.428C135.631 26.1568 135.748 25.8067 135.748 25.3778C135.748 24.9426 135.631 24.5925 135.397 24.3276C135.163 24.0563 134.853 23.9207 134.467 23.9207H132.883ZM139.662 30.279C139.599 30.279 139.567 30.2474 139.567 30.1843V23.7504C139.567 23.6873 139.599 23.6558 139.662 23.6558H141.388C141.894 23.6558 142.293 23.8103 142.584 24.1194C142.874 24.4222 143.02 24.8416 143.02 25.3778V28.5569C143.02 29.0931 142.874 29.5157 142.584 29.8248C142.293 30.1276 141.894 30.279 141.388 30.279H139.662ZM139.851 29.9762C139.851 30.0014 139.864 30.014 139.889 30.014H141.398C141.809 30.014 142.135 29.8847 142.375 29.6261C142.615 29.3675 142.735 29.0111 142.735 28.5569V25.3873C142.735 24.9268 142.615 24.5672 142.375 24.3086C142.135 24.05 141.809 23.9207 141.398 23.9207H139.889C139.864 23.9207 139.851 23.9333 139.851 23.9586V29.9762ZM150.849 30.279C150.786 30.279 150.754 30.2474 150.754 30.1843V23.7504C150.754 23.6873 150.786 23.6558 150.849 23.6558H150.944C151.007 23.6558 151.039 23.6873 151.039 23.7504V30.1843C151.039 30.2474 151.007 30.279 150.944 30.279H150.849ZM158.082 23.6558C158.146 23.6558 158.177 23.6873 158.177 23.7504V23.8261C158.177 23.8892 158.146 23.9207 158.082 23.9207H156.479C156.454 23.9207 156.441 23.9333 156.441 23.9586V30.1843C156.441 30.2474 156.409 30.279 156.346 30.279H156.251C156.188 30.279 156.157 30.2474 156.157 30.1843V23.9586C156.157 23.9333 156.144 23.9207 156.118 23.9207H154.61C154.547 23.9207 154.515 23.8892 154.515 23.8261V23.7504C154.515 23.6873 154.547 23.6558 154.61 23.6558H158.082Z" fill="#1E1F22"/>
<path d="M22.7621 2.56348L19.0547 15.3603" stroke="#004A7C" stroke-width="0.206049" stroke-linecap="round" stroke-linejoin="round"/>
<path d="M8.4502 2.52148L12.1575 15.3182" stroke="#004A7C" stroke-width="0.206049" stroke-linecap="round" stroke-linejoin="round"/>
<path d="M15.6123 18.2666L17.1287 23.8667" stroke="#004A7C" stroke-width="0.206049" stroke-linecap="round" stroke-linejoin="round"/>
<path d="M15.5994 18.3076L14.083 23.9077" stroke="#004A7C" stroke-width="0.206049" stroke-linecap="round" stroke-linejoin="round"/>
<path d="M0.046875 12.1396L7.14095 17.0668" stroke="#004A7C" stroke-width="0.206049" stroke-linecap="round" stroke-linejoin="round"/>
<path d="M0.0898438 12.1384L5.90602 12.127" stroke="#004A7C" stroke-width="0.206049" stroke-linecap="round" stroke-linejoin="round"/>
<path d="M31.0765 12.1396L23.9824 17.0668" stroke="#004A7C" stroke-width="0.206049" stroke-linecap="round" stroke-linejoin="round"/>
<path d="M31.034 12.1384L25.2178 12.127" stroke="#004A7C" stroke-width="0.206049" stroke-linecap="round" stroke-linejoin="round"/>
<path d="M25.3992 30.3221L18.3711 25.3018" stroke="#004A7C" stroke-width="0.206049" stroke-linecap="round" stroke-linejoin="round"/>
<path d="M25.3863 30.2812L23.4521 24.8105" stroke="#004A7C" stroke-width="0.206049" stroke-linecap="round" stroke-linejoin="round"/>
<path d="M5.90527 30.2996L12.9334 25.2793" stroke="#004A7C" stroke-width="0.206049" stroke-linecap="round" stroke-linejoin="round"/>
<path d="M5.91797 30.2587L7.8521 24.7881" stroke="#004A7C" stroke-width="0.206049" stroke-linecap="round" stroke-linejoin="round"/>
<path d="M15.5987 2.48828L11.0459 19.4641" stroke="#1E1F22" stroke-width="0.412099" stroke-linecap="round" stroke-linejoin="round"/>
<path d="M11.0458 19.4641L6.15045 2.52148H3.93262L10.0694 23.8662H11.9532L15.5905 10.328" stroke="#1E1F22" stroke-width="0.412099" stroke-linecap="round" stroke-linejoin="round"/>
<path d="M15.6133 2.5293L20.1661 19.5051L25.0615 2.56254H27.2794L21.1426 23.9072H19.2587L15.6215 10.369" stroke="#1E1F22" stroke-width="0.412099" stroke-linecap="round" stroke-linejoin="round"/>
<path d="M35.9531 2.79102V29.9199" stroke="#004A7C" stroke-width="0.453309" stroke-linecap="round" stroke-linejoin="round"/>
</g>
</g>
<defs>
<clipPath id="clip0_27_347">
<rect width="159" height="32" fill="white"/>
</clipPath>
</defs>
</svg>
