<svg width="43" height="42" viewBox="0 0 43 42" fill="none" xmlns="http://www.w3.org/2000/svg">
<circle cx="21.1582" cy="21" r="21" fill="white"/>
<path d="M21.0158 14C17.2288 14 14.1582 17.0693 14.1582 20.8546C14.1582 23.6607 15.8481 26.072 18.2636 27.1339C18.2452 26.6565 18.2605 26.0812 18.383 25.561C18.5146 25.0041 19.2647 21.8246 19.2647 21.8246C19.2647 21.8246 19.0443 21.387 19.0443 20.7414C19.0443 19.7254 19.6321 18.9665 20.3668 18.9665C20.9914 18.9665 21.2914 19.4347 21.2914 19.9947C21.2914 20.622 20.8903 21.5584 20.6852 22.4275C20.5138 23.1558 21.0495 23.7464 21.769 23.7464C23.067 23.7464 23.9426 22.0786 23.9426 20.1018C23.9426 18.5993 22.9293 17.4763 21.0893 17.4763C19.0106 17.4763 17.7125 19.0277 17.7125 20.7597C17.7125 21.3564 17.8901 21.7787 18.1656 22.1031C18.2912 22.253 18.3095 22.3142 18.2636 22.4856C18.2299 22.6111 18.1565 22.914 18.1228 23.0364C18.0769 23.2108 17.936 23.2721 17.7799 23.2078C16.8217 22.8161 16.3747 21.7696 16.3747 20.5884C16.3747 18.6421 18.0187 16.3073 21.2761 16.3073C23.8936 16.3073 25.6172 18.2015 25.6172 20.2334C25.6172 22.9232 24.1202 24.9306 21.9159 24.9306C21.175 24.9306 20.4801 24.5297 20.2413 24.0769C20.2413 24.0769 19.8433 25.6559 19.7576 25.9619C19.6137 26.4913 19.329 27.0176 19.0688 27.4307C19.7 27.6168 20.3547 27.7116 21.0128 27.7122C24.7998 27.7122 27.8704 24.643 27.8704 20.8576C27.8704 17.0723 24.8029 14 21.0158 14Z" fill="#1E1F22"/>
</svg>
