<svg width="251" height="163" viewBox="0 0 251 163" fill="none" xmlns="http://www.w3.org/2000/svg">
<circle cx="228.655" cy="140.665" r="22.14" fill="#E02727"/>
<path d="M237.17 140.666L224.397 148.04L224.397 133.291L237.17 140.666Z" fill="white"/>
<path fill-rule="evenodd" clip-rule="evenodd" d="M147.911 96.4988C158.02 86.4394 164 73.9849 164 60.5C164 27.0868 127.287 0 82 0C36.7127 0 0 27.0868 0 60.5C0 93.9132 36.7127 121 82 121C104.459 121 124.808 114.339 139.618 103.548L156.896 108.051L147.911 96.4988Z" fill="#1E1F22"/>
<path d="M63.7477 65.1196C64.2151 64.9703 64.5829 64.9649 64.851 65.1032C65.1394 65.2351 65.3355 65.4636 65.4393 65.7887C65.6081 66.3171 65.5947 66.8364 65.3993 67.3467C65.2242 67.8505 64.8046 68.2196 64.1405 68.4541C62.5415 68.987 61.0596 69.3257 59.695 69.4703C59.2392 72.9526 58.3265 76.0209 56.9569 78.6752C55.6012 81.3027 53.9479 82.9279 51.9969 83.5508C50.2085 84.1218 48.5655 83.6051 47.0678 82.0006C45.5637 80.3757 44.2413 77.9875 43.1007 74.8357C43.0103 78.7612 42.4687 81.8342 41.4757 84.0548C40.503 86.2688 39.153 87.6516 37.4256 88.2032C35.4746 88.8261 33.6151 88.0873 31.8472 85.9868C30.0727 83.8661 28.5302 80.7531 27.2195 76.6479C26.2656 73.6605 25.4819 70.294 24.8683 66.5486C24.6861 65.487 24.7163 64.7048 24.9588 64.2018C25.2152 63.6721 25.7498 63.2775 26.5627 63.0179C27.1724 62.8233 27.682 62.8061 28.0915 62.9665C28.5214 63.1204 28.8498 63.553 29.0769 64.2643C29.1223 64.4065 29.1896 64.6874 29.2787 65.1068C29.9992 69.4676 30.8267 73.1112 31.761 76.0377C32.6305 78.7609 33.5358 80.7897 34.4769 82.124C35.418 83.4583 36.2848 83.9989 37.0774 83.7459C37.7887 83.5188 38.4054 82.5045 38.9275 80.703C39.4635 78.8747 39.7622 76.3383 39.8237 73.0939C39.8786 69.8292 39.6027 66.0543 38.996 61.7691C38.8601 60.7824 38.9504 60.0482 39.2668 59.5664C39.5971 59.0578 40.1382 58.6835 40.8902 58.4435C41.5202 58.2423 42.0229 58.2386 42.3982 58.4322C42.7874 58.5991 43.0696 58.9569 43.2448 59.5056C43.3486 59.8308 43.4094 60.0913 43.4272 60.2872C43.9158 63.7814 44.6889 67.1849 45.7465 70.4975C46.4668 72.7533 47.1121 74.5291 47.6826 75.825C48.2735 77.1144 48.8958 78.0466 49.5497 78.6216C50.2174 79.1698 50.9679 79.3109 51.8011 79.0449C52.7766 78.7334 53.6303 77.6547 54.3621 75.8086C55.0875 73.9422 55.5977 71.7527 55.8927 69.2399C54.4065 68.8634 53.1537 68.1661 52.1344 67.1479C51.1086 66.1093 50.3394 64.7873 49.8268 63.1818C49.3142 61.5764 49.1266 60.147 49.2639 58.8939C49.4151 57.6139 49.8299 56.5633 50.5082 55.7421C51.2069 54.9144 52.0846 54.3318 53.1414 53.9944C54.4421 53.5791 55.6176 53.7189 56.668 54.4136C57.7387 55.1019 58.5337 56.259 59.0527 57.8848C59.786 60.1812 60.1024 62.8907 60.002 66.0132C61.0968 65.8651 62.3454 65.5673 63.7477 65.1196ZM52.8375 61.9854C53.4734 63.9771 54.584 65.246 56.1693 65.7924C56.2351 63.2632 56.0312 61.2569 55.5576 59.7733C55.285 58.9198 54.9754 58.3356 54.6285 58.0209C54.2752 57.6858 53.9055 57.5799 53.5194 57.7032C52.9706 57.8784 52.6274 58.3463 52.4895 59.1069C52.3452 59.8472 52.4612 60.8067 52.8375 61.9854ZM81.0786 66.6067C81.3428 66.5224 81.5849 66.5794 81.8051 66.7779C82.0455 66.9699 82.2339 67.2792 82.3701 67.706C82.6297 68.5189 82.6377 69.2106 82.3944 69.7809C81.8034 71.1565 81.1204 72.3488 80.3452 73.3577C79.5903 74.3601 78.5828 75.0624 77.3228 75.4647C76.2864 75.7957 75.4099 75.7508 74.6933 75.3301C73.9703 74.8892 73.4271 74.0996 73.0637 72.9616C72.882 72.3925 72.6999 71.331 72.5172 69.7769C72.3726 68.4122 72.2224 67.486 72.0667 66.9983C71.9629 66.6731 71.7992 66.5462 71.5757 66.6176C71.3115 66.702 71.0458 67.1675 70.7787 68.0142C70.5051 68.8406 70.3028 69.8905 70.172 71.1639C70.0411 72.4374 70.0211 73.7427 70.1121 75.0797C70.2451 76.8288 69.5494 77.9466 68.0252 78.4333C67.4156 78.6279 66.941 78.5443 66.6015 78.1824C66.2758 77.7937 65.9313 77.0304 65.568 75.8923C65.3603 75.242 65.205 74.7205 65.1021 74.3279L64.3539 71.8794C63.3547 68.7497 62.6283 65.3874 62.1747 61.7924C61.7414 58.1908 61.778 55.044 62.2844 52.3517C62.8047 49.6326 63.9388 47.9941 65.6865 47.4361C66.6214 47.1376 67.5031 47.3039 68.3316 47.9352C69.1741 48.5396 69.7997 49.482 70.2084 50.7623C70.8638 52.8149 70.9456 55.1402 70.4538 57.7382C69.9555 60.3158 68.8254 63.5095 67.0633 67.3193C67.3398 68.3955 67.6564 69.4925 68.0133 70.6103C68.1324 68.6687 68.4265 67.0296 68.8955 65.693C69.3783 64.3295 69.9414 63.2876 70.5847 62.5671C71.2484 61.8401 71.9156 61.3696 72.5862 61.1555C73.9072 60.7337 74.7786 61.1833 75.2003 62.5043C75.4534 63.2969 75.6873 64.801 75.902 67.0166C76.0804 68.908 76.2604 70.1382 76.4421 70.7072C76.7016 71.5201 77.1261 71.8325 77.7155 71.6443C78.1219 71.5146 78.5216 71.1182 78.9146 70.4553C79.3214 69.7655 79.8138 68.7125 80.3918 67.2963C80.5448 66.9339 80.7737 66.7041 81.0786 66.6067ZM66.0099 50.6584C65.6441 50.7751 65.4064 51.4333 65.2967 52.6328C65.1805 53.812 65.1945 55.364 65.3387 57.2886C65.4968 59.1865 65.7779 61.2242 66.182 63.4018C66.9684 61.5159 67.489 59.5693 67.7438 57.562C68.0191 55.5483 67.9296 53.8301 67.4754 52.4075C67.2677 51.7572 67.0376 51.282 66.7851 50.9819C66.5325 50.6819 66.2741 50.574 66.0099 50.6584ZM87.7658 56.3089C88.2332 56.1597 88.5778 56.1168 88.7997 56.1804C89.0215 56.2439 89.1778 56.4179 89.2687 56.7025C89.4244 57.1902 89.715 59.0121 90.1404 62.1683C90.5879 65.183 90.8554 66.9675 90.9428 67.5219C91.8584 72.9849 92.1424 77.4514 91.7947 80.9216C91.447 84.3918 90.1758 86.4772 87.9809 87.178C86.9445 87.5089 85.9973 87.453 85.1393 87.0103C84.2878 86.588 83.6966 85.8586 83.3657 84.8221C83.0608 83.8669 82.9627 82.8233 83.0715 81.6913C83.2007 80.5527 83.647 79.1449 84.4104 77.4679C85.2007 75.8048 86.417 73.7928 88.0595 71.4321L87.9271 70.7018C87.8292 69.9044 87.6479 68.7754 87.3831 67.3147C87.4438 68.9077 87.2317 70.2072 86.7466 71.213C86.2551 72.1985 85.6029 72.8211 84.79 73.0806C83.8755 73.3726 82.9905 73.1961 82.1351 72.551C81.2936 71.8792 80.6716 70.9132 80.2693 69.6532C79.7827 68.129 79.4398 66.7045 79.2408 65.3796C79.0352 64.0344 78.939 62.5759 78.9523 61.004C78.9608 60.3295 79.1058 59.8017 79.3873 59.4207C79.6688 59.0397 80.2058 58.7227 80.9984 58.4696C81.4455 58.3269 81.773 58.3007 81.981 58.391C82.2093 58.4749 82.3689 58.6591 82.4597 58.9436C82.5117 59.1062 82.5751 59.6906 82.65 60.6968C82.6869 61.5136 82.7416 62.2463 82.8144 62.8949C82.9178 63.7801 83.0319 64.6282 83.1565 65.4394C83.2746 66.2303 83.4116 66.8696 83.5673 67.3574C83.8139 68.1296 84.1505 68.4476 84.5773 68.3114C84.8822 68.214 85.1608 67.7891 85.4132 67.0367C85.686 66.2778 85.8785 65.1974 85.9908 63.7955C86.1233 62.3871 86.1448 60.7007 86.055 58.7363C86.0229 58.0747 86.1273 57.5599 86.3681 57.1919C86.6293 56.8174 87.0951 56.5231 87.7658 56.3089ZM87.3722 84.114C87.8802 83.9518 88.2611 83.1807 88.5147 81.8009C88.7684 80.421 88.7723 78.2587 88.5263 75.314C87.3832 77.1346 86.628 78.697 86.2606 80.0012C85.92 81.3193 85.8795 82.3847 86.139 83.1976C86.2493 83.5431 86.4011 83.8082 86.5944 83.9928C86.8081 84.1709 87.0673 84.2113 87.3722 84.114ZM106.551 66.1326C105.637 66.4246 104.752 66.2481 103.897 65.603C103.055 64.9311 102.433 63.9652 102.031 62.7052C101.544 61.181 101.201 59.7565 101.002 58.4316C100.797 57.0864 100.701 55.6278 100.714 54.056C100.722 53.3815 100.867 52.8537 101.149 52.4727C101.43 52.0917 101.967 51.7747 102.76 51.5216C103.207 51.3789 103.534 51.3527 103.742 51.443C103.971 51.5269 104.13 51.7111 104.221 51.9956C104.273 52.1582 104.337 52.7426 104.411 53.7488C104.448 54.5656 104.503 55.2983 104.576 55.9469C104.851 58.2106 105.102 59.6981 105.329 60.4093C105.465 60.8361 105.613 61.1247 105.773 61.2752C105.927 61.4053 106.115 61.4347 106.339 61.3633C106.644 61.266 106.922 60.8411 107.175 60.0887C107.447 59.3298 107.64 58.2494 107.752 56.8475C107.885 55.4391 107.906 53.7527 107.817 51.7883C107.784 51.1267 107.889 50.6119 108.13 50.2439C108.391 49.8694 108.857 49.575 109.527 49.3609C109.995 49.2117 110.339 49.1688 110.561 49.2324C110.776 49.2756 110.933 49.4496 111.03 49.7544C111.192 50.2625 111.383 51.7357 111.601 54.1741C111.863 56.957 112.091 58.6534 112.286 59.2631C112.409 59.6492 112.588 59.9281 112.822 60.0997C113.049 60.251 113.295 60.2845 113.559 60.2002C113.966 60.0704 114.365 59.674 114.758 59.0111C115.165 58.3213 115.657 57.2684 116.235 55.8521C116.388 55.4898 116.617 55.2599 116.922 55.1626C117.186 55.0782 117.429 55.1353 117.649 55.3337C117.889 55.5257 118.077 55.8351 118.214 56.2618C118.473 57.0747 118.481 57.7664 118.238 58.3368C117.708 59.6929 117.045 60.8786 116.25 61.894C115.475 62.9029 114.447 63.6118 113.166 64.0206C112.191 64.332 111.349 64.1864 110.642 63.5837C109.955 62.9745 109.394 61.9891 108.959 60.6275C109.055 62.1197 108.877 63.3521 108.426 64.3247C107.969 65.2769 107.344 65.8796 106.551 66.1326ZM123.407 61.4899C122.35 61.8273 121.46 61.843 120.735 61.5369C120.03 61.2244 119.581 60.7633 119.386 60.1536C119.218 59.6252 119.265 59.1063 119.527 58.5969C119.79 58.0875 120.298 57.7127 121.05 57.4727C121.314 57.3883 121.628 57.3215 121.993 57.2721C122.372 57.196 122.656 57.1389 122.846 57.1008C122.657 56.5789 122.376 56.1199 122.003 55.7239C121.65 55.3213 121.243 54.9586 120.782 54.6356C120.314 54.2923 119.886 54.0035 119.498 53.7692C119.251 55.1694 118.938 56.3664 118.562 57.3601C118.205 58.3473 117.774 59.3134 117.27 60.2583C117.021 60.7409 116.693 61.0471 116.287 61.1768C115.961 61.2807 115.662 61.2532 115.387 61.0946C115.106 60.9156 114.91 60.6534 114.8 60.3079C114.67 59.9014 114.692 59.48 114.867 59.0437L115.107 58.4294C115.784 56.6906 116.264 55.2833 116.547 54.2074C116.725 53.5012 116.867 52.6833 116.973 51.7536C117.1 50.8174 117.244 49.5509 117.406 47.954C117.506 46.9365 118.166 46.2331 119.386 45.8438C119.955 45.6621 120.367 45.5864 120.623 45.6166C120.879 45.6468 121.043 45.7737 121.114 45.9973C121.153 46.1192 121.174 46.3253 121.177 46.6154C121.18 46.9056 121.153 47.2054 121.095 47.515C120.963 48.3635 120.978 49.0417 121.14 49.5498C121.237 49.8546 121.446 50.1575 121.766 50.4584C122.107 50.7528 122.588 51.103 123.21 51.509C124.133 52.1549 124.854 52.7308 125.374 53.2367C125.908 53.7157 126.288 54.3109 126.515 55.0222C126.788 55.8757 126.844 56.7535 126.684 57.6555C126.538 58.5308 126.184 59.3156 125.622 60.0102C125.06 60.7047 124.322 61.1979 123.407 61.4899ZM132.149 49.9316C131.783 50.0484 131.456 50.0409 131.167 49.909C130.872 49.7568 130.657 49.4336 130.522 48.9394C130.194 47.6331 130.136 46.3977 130.346 45.2332C130.557 44.0687 131.084 42.6687 131.928 41.0332C132.723 39.5253 133.248 38.2939 133.503 37.3391C133.758 36.3843 133.749 35.4802 133.476 34.6266C133.029 33.2244 132.022 32.773 130.458 33.2727C129.523 33.5711 128.88 34.0116 128.528 34.5941C128.17 35.1563 128.092 35.7524 128.293 36.3824L128.722 37.6225C128.833 37.968 128.798 38.315 128.618 38.6636C128.452 38.9853 128.095 39.2338 127.546 39.4089C126.916 39.6101 126.37 39.5829 125.908 39.3274C125.459 39.0451 125.125 38.5585 124.904 37.8675C124.58 36.8514 124.528 35.8488 124.75 34.8599C124.985 33.8441 125.53 32.92 126.384 32.0875C127.238 31.255 128.407 30.6019 129.89 30.1282C131.902 29.4859 133.596 29.4264 134.973 29.9499C136.363 30.4466 137.318 31.5078 137.837 33.1336C138.246 34.414 138.29 35.6762 137.971 36.9202C137.652 38.1643 137.02 39.5529 136.076 41.0859C135.277 42.3711 134.687 43.3993 134.306 44.1703C133.926 44.9413 133.674 45.5926 133.553 46.124C133.445 46.6287 133.401 47.1915 133.42 47.8124C133.447 48.3862 133.34 48.8571 133.099 49.2251C132.872 49.5663 132.555 49.8018 132.149 49.9316ZM133.316 57.5871C132.422 57.8726 131.663 57.8461 131.04 57.5076C130.438 57.1626 130.01 56.5938 129.757 55.8012C129.465 54.8867 129.485 54.074 129.818 53.3631C130.171 52.6457 130.815 52.1377 131.75 51.8392C132.644 51.5537 133.386 51.5632 133.976 51.8675C134.58 52.145 135.018 52.7106 135.29 53.5641C135.589 54.499 135.565 55.3353 135.218 56.073C134.865 56.7904 134.231 57.2951 133.316 57.5871Z" fill="white"/>
</svg>
