<svg width="43" height="42" viewBox="0 0 43 42" fill="none" xmlns="http://www.w3.org/2000/svg">
<circle cx="21.1055" cy="21" r="21" fill="white"/>
<path d="M28.5695 16.7703C28.027 17.006 27.4531 17.1613 26.8657 17.2313C27.483 16.8698 27.9472 16.2956 28.1712 15.6164C27.5877 15.9576 26.9503 16.197 26.2863 16.3244C26.0068 16.0314 25.6705 15.7983 25.2981 15.6393C24.9256 15.4803 24.5247 15.3987 24.1197 15.3994C22.4801 15.3994 21.1532 16.707 21.1532 18.319C21.152 18.5432 21.1777 18.7667 21.2297 18.9848C20.054 18.9297 18.9027 18.6298 17.8495 18.1042C16.7963 17.5787 15.8644 16.8391 15.1134 15.9327C14.85 16.3769 14.7107 16.8836 14.71 17.4C14.71 18.4124 15.2382 19.3072 16.0357 19.8315C15.5632 19.8202 15.1004 19.6952 14.6865 19.4669V19.503C14.6865 20.9191 15.7109 22.0972 17.0667 22.3653C16.8118 22.4333 16.549 22.4677 16.2852 22.4678C16.0979 22.4681 15.9111 22.4499 15.7275 22.4135C16.1044 23.5735 17.2014 24.4172 18.5009 24.4413C17.445 25.255 16.1486 25.6949 14.8155 25.6916C14.5788 25.6913 14.3424 25.6772 14.1074 25.6494C15.4636 26.5154 17.0401 26.9735 18.6491 26.9691C24.1134 26.9691 27.0986 22.519 27.0986 18.6594C27.0986 18.5329 27.0953 18.4063 27.0893 18.2828C27.6687 17.8707 28.17 17.3585 28.5695 16.7703Z" fill="#1E1F22"/>
</svg>
